/* XPM */
static char *no_logo[] = {
/* columns rows colors chars-per-pixel */
"80 60 256 2",
"   c #000000",
".  c #110000",
"X  c #111111",
"o  c #111111",
"O  c #221100",
"+  c #331111",
"@  c #333311",
"#  c #220033",
"$  c #331122",
"%  c #221133",
"&  c #333333",
"*  c #444444",
"=  c #332222",
"-  c #442233",
";  c #553333",
":  c #554411",
">  c #444433",
",  c #665533",
"<  c #664411",
"1  c #221144",
"2  c #331155",
"3  c #332244",
"4  c #332244",
"5  c #332244",
"6  c #331144",
"7  c #221155",
"8  c #331155",
"9  c #331155",
"0  c #331155",
"q  c #332255",
"w  c #331155",
"e  c #332255",
"r  c #332255",
"t  c #332255",
"y  c #332255",
"u  c #333344",
"i  c #443344",
"p  c #332255",
"a  c #332255",
"s  c #442255",
"d  c #332255",
"f  c #442255",
"g  c #332255",
"h  c #443355",
"j  c #331166",
"k  c #332266",
"l  c #332266",
"z  c #331166",
"x  c #331166",
"c  c #331166",
"v  c #331166",
"b  c #331177",
"n  c #331177",
"m  c #331166",
"M  c #442266",
"N  c #443344",
"B  c #443366",
"V  c #443355",
"C  c #443355",
"Z  c #443366",
"A  c #443366",
"S  c #442266",
"D  c #443366",
"F  c #443366",
"G  c #554466",
"H  c #553377",
"J  c #553377",
"K  c #444444",
"L  c #444455",
"P  c #554455",
"I  c #554455",
"U  c #555566",
"Y  c #555555",
"T  c #555555",
"R  c #665555",
"E  c #776644",
"W  c #554466",
"Q  c #554466",
"!  c #555566",
"~  c #665566",
"^  c #555566",
"/  c #554477",
"(  c #554477",
")  c #665577",
"_  c #665566",
"`  c #665566",
"'  c #665577",
"]  c #665577",
"[  c #665577",
"{  c #666666",
"}  c #666666",
"|  c #666666",
" . c #666677",
".. c #666677",
"X. c #666677",
"o. c #776677",
"O. c #776677",
"+. c #777777",
"@. c #777777",
"#. c #777777",
"$. c #776666",
"%. c #886633",
"&. c #997755",
"*. c #887766",
"=. c #997766",
"-. c #AA8833",
";. c #DDBB44",
":. c #DDBB33",
">. c #998855",
",. c #AA9955",
"<. c #AA9966",
"1. c #BBAA66",
"2. c #DDBB44",
"3. c #CCAA55",
"4. c #DDBB55",
"5. c #CCAA55",
"6. c #DDBB44",
"7. c #CCAA77",
"8. c #DDBB77",
"9. c #664488",
"0. c #665588",
"q. c #665588",
"w. c #665588",
"e. c #775588",
"r. c #776699",
"t. c #776688",
"y. c #777788",
"u. c #777788",
"i. c #777788",
"p. c #776699",
"a. c #776688",
"s. c #7755AA",
"d. c #887788",
"f. c #887788",
"g. c #887799",
"h. c #887799",
"j. c #887799",
"k. c #8866AA",
"l. c #8877AA",
"z. c #9977BB",
"x. c #888888",
"c. c #888888",
"v. c #888888",
"b. c #888899",
"n. c #888899",
"m. c #998899",
"M. c #999999",
"N. c #999999",
"B. c #999999",
"V. c #999999",
"C. c #888888",
"Z. c #AA9999",
"A. c #AAAA99",
"S. c #9988AA",
"D. c #9999AA",
"F. c #9999AA",
"G. c #9988BB",
"H. c #9988AA",
"J. c #9999AA",
"K. c #AA99AA",
"L. c #AA99BB",
"P. c #AA99BB",
"I. c #9988AA",
"U. c #AAAAAA",
"Y. c #AAAAAA",
"T. c #AAAAAA",
"R. c #AAAAAA",
"E. c #AAAAAA",
"W. c #AAAAAA",
"Q. c #AAAAAA",
"!. c #AAAABB",
"~. c #AAAABB",
"^. c #BBAABB",
"/. c #AAAABB",
"(. c #BBAABB",
"). c #BBBBBB",
"_. c #BBBBBB",
"`. c #BBBBBB",
"'. c #BBBBBB",
"]. c #AAAAAA",
"[. c #BBBBAA",
"{. c #DDCC88",
"}. c #CCCCBB",
"|. c #DDCCAA",
" X c #EEDDAA",
".X c #FFEEBB",
"XX c #AA99CC",
"oX c #AAAACC",
"OX c #BBAACC",
"+X c #BBAACC",
"@X c #BBBBBB",
"#X c #BBBBBB",
"$X c #BBAACC",
"%X c #BBAABB",
"&X c #BBAACC",
"*X c #BBAADD",
"=X c #BBAACC",
"-X c #BBBBCC",
";X c #BBBBCC",
":X c #CCBBCC",
">X c #C6B7D9",
",X c #CFB8E8",
"<X c #BEC0C0",
"1X c #C3C2C5",
"2X c #C6C3C9",
"3X c #C9C5CB",
"4X c #CBCACD",
"5X c #CAC9C7",
"6X c #CDC4D6",
"7X c #CECCD1",
"8X c #D2CDD4",
"9X c #D4CBDC",
"0X c #D3C7DA",
"qX c #D3D2D5",
"wX c #D6D4D9",
"eX c #DAD5DB",
"rX c #DCDBDD",
"tX c #DAD4C5",
"yX c #E0DFDF",
"uX c #E0D9C6",
"iX c #E4E2DB",
"pX c #FDF3D9",
"aX c #F7EBD3",
"sX c #D7CBE5",
"dX c #DBD5E2",
"fX c #DEDCE1",
"gX c #DED3E9",
"hX c #DDCEF1",
"jX c #E2DDE3",
"kX c #E4D9EA",
"lX c #EBDDF9",
"zX c #EDD7F5",
"xX c #E4E3E4",
"cX c #E8E7E7",
"vX c #E9E8E7",
"bX c #E7E5E8",
"nX c #EAE6EB",
"mX c #ECEBEC",
"MX c #F3F2EE",
"NX c #F9F5EC",
"BX c #FCF7E5",
"VX c #ECE2F3",
"CX c #EFEDF1",
"ZX c #EDE5F8",
"AX c #F1EEF2",
"SX c #F5EBFE",
"DX c #FAEEFC",
"FX c #F2E5F8",
"GX c #EFF1F0",
"HX c #F4F4F4",
"JX c #FCFAF5",
"KX c #F6F4F9",
"LX c #FBF5FC",
"PX c #FCFBFD",
"IX c #F7F8F6",
"UX c #F2EDE9",
/* pixels */
"B.D.D.D.D.D.D.D.D.D.D.D.D.D.D.D.D.D.D.D.D.D.D.D.D.D.D.D.D.D.D.F.D.D.F.D.D.D.D.D.D.D.D.D.D.D.F.D.D.D.D.D.F.D.D.D.D.D.D.D.D.B.D.D.D.D.F.D.D.D.D.D.F.F.D.D.D.D.D.V.",
"B.D.Y.Y.J.J.Y.Y.Y.Y.Y.J.Y.Y.Y.Y.Y.Y.Y.Y.Y.Y.Y.Y.Y.Y.Y.Y.Y.Y.Y.Y.D.Y.Y.Y.Y.Y.Y.Y.Y.Y.J.Y.Y.Y.Y.Y.Y.Y.Y.Y.Y.Y.Y.Y.Y.Y.Y.Y.Y.Y.Y.Y.Y.Y.J.Y.Y.Y.Y.Y.Y.Y.Y.Y.T.U.U.M.",
"N.D.Y.Q.R.Q.R.T.R.R.R.R.R.R.R.R.R.R.R.R.!.R.R.R.R.R.R.R.R.R.T.R.R.R.T.R.R.R.R.R.R.R.T.R.R.R.R.T.R.R.R.R.T.R.R.R.R.R.R.T.R.R.T.T.R.R.R.R.T.R.R.T.R.R.R.R.R.U.V.M.",
"B.D.Y.T.~.~.~.~.^.Q.~.~.~.~.~.~.(.(.Q.Q.(.~.^.~.^.Q.^.^.~.(.Q.~.~.(.~.~.Q.~.~.^.Q.~.^.Q.~.~.^.~.~.~.Q.Q.^.~.~.Q.^.~.~.^.^.~.Q.^.~.Q.^.Q.~.~.^.~.~.~.~.~.R.U.V.M.",
"B.D.Y.T.Q.).).).).).`.).%X).).).).).).).).).`.).%X).$X@X%X<X).%X%X).).).%X%X).%X).).%X).%X%X%X%X%X%X).).%X).).).).).).).%X<X).).).).).`.).).).).%X).).(.R.U.V.V.",
"B.D.Y.T.Q.).#X#X#X#X#X#X#X#X#X<X#X#X<X<X<X#X#X<X<X<X<X<X<X%X#X%X#X@X<X%X<X@X#X<X#X@X#X#X<X<X<X<X#X<X#X<X#X#X#X#X#X@X#X#X<X%X<X%X#X#X#X@X#X#X#X#X<X<X).W.R.U.V.V.",
"B.D.Y.T.Q.m.Q ] ) i.2X<X<X<X<X<X<X2X1X1X<X<X<X2X<X<X<X<X<X<X=XS.0.0.0.0.0.0.0.0.w.t.l.L.oX!.i.) ) 0.0.0.0.0.) 0.0.0.0.0.0.0.0.w.p.I.oX-X1X<X1X#X<X`.(.W.U.U.V.M.",
"B.D.Y.T./.!.# q p f $X3X6X3X3X4X4X3X3X3X3X3X5X5X<X<X7X<X3XH.g q g q q e q e e q e e q q 9 / G.w.3 g 9 e e e k e e e e q q e e e 0 q 5 D &X2X3X2X<X`.(.W.R.U.V.V.",
"N.D.J.Q.Q.).f 0 e p oX7X7X4X4X7X4X4X7X4X7X4X4X4X4X4X7X7Xl.5 e l k k k k k M k v k k c k k k g r.9.3 g k k k k k e k k k k k k k l k e g a P.7X2X<X<X(.W.E.U.V.M.",
"N.D.Y.T.~.).w.0 k q l.wX8X8XqXqXqXqXqXqXqXqXqXqXqX8X0X/.5 k l v v k k k k k k k k c k c c k k 9 z.9.k k k k k k e k k k k g k k l v c k e s ;X:X<X<X(.W.R.U.U.M.",
"B.D.Y.T.~.^.H.6 e q / 8XwXqXwXwXwXwXwXwXqXqXqXwXqXwX0Xf e l v l k g g g M g g M g g k k k c M c 9 XXf g p p g p p p p g p g g g p e l v l q w.2X<X<X(.W.E.U.V.V.",
"B.D.Y.T.~.).P.4 e e a 6XwXrXrXiXrXrXyXrXrXrXrXrXeXrXL.e l v v Z M F F h f L h f D f f f k k v c k J G.F W W W Q Q Q Q ^ ^ ) ) Q F f k l l k 4 @X<X<X(.W.R.U.V.M.",
"N.D.Y.R.~.^._.B e e 5 XXwXrXyXyXyXyXyXyXrXjXyXrXjXxX( k v c A J D S.$X%X@X@X%X@X%X%XH.i.Q g k c n k L.sXsX9XsXwXdXdXrXdXdXdXdXdX>XS.G t l w 2 g.#X`.(.(.R.U.V.M.",
"B.D.U.T.Q.)._.t.9 e q h.wXrXrXxXxXxXxXxXxXxXxXxXxXgXg l v S J l g r.bXxXbXbXxXxXxXxXxXxXsXp.k M c k M bXbXxXxXxXxXxXxXxXxXxXxXxXxXjX:XB w l q G #X`.(.W.R.U.V.V.",
"B.D.U.T.~.(.@XP.2 k e ( wXeXiXxXvXvXcXmXvXcXmXnXbXoX0 l k H c l M 0.xXbXbXnXnXnXbXbXbXbXmXkXr.M c c 9 XXbXbXvXvXxXbXvXxXvXxXbXbXcXjXjXI.q l e p @X`.(.(.].U.J.M.",
"B.D.Y.T.~.).`.@Xa e e B 9XfXfXxXcXvXmXmXvXmXmXmXVXg.w v c 9.l v k 0.CXnXCXnXGXnXmXmXmXmXmXmXgXf k c k w.mXmXmXmXvXmXmXmXmXGXmXmXxXjXeX0XB r e 5 P.`.(.W.E.U.V.M.",
"B.D.E.T.(.).`.-X/ q k q $XeXfXxXxXmXCXHXmXmXGXCXFXW l v S z.v v k q.AXGXGXGXGXGXmXGXGXmXmXAXAXP.w n k M VXCXmXmXMXmXGXGXGXCXmXmXxXiXrXeXF r e 2 m._.).W.R.U.V.V.",
"V.D.Y.T.Q.)._.-Xp.0 r 0 g.rXfXxXxXmXmXMXHXHXHXAXVXr r l 9.*Xj x k q.HXHXHXGXGXGXHXyX4XCXAXAXAXFXM c n e >XAXKXAXHXHXGXGXHXmXmXbXxXyXrXrXH e e 2 h.`.(.W.E.U.V.M.",
"B.D.Y.T.Q.)._.-XXX4 k e W dXjXjXxXmXmXHXHXHXHXKX>X8 l w z.*Xj z k q.HXHXHXIXHXIX(..   * HXKXKXDXr.k n w j.LXKXHXHXHXHXIXGXGXmXbXxXyXyXeXD l e 4 g.`.).(.R.U.Z.M.",
"B.D.Y.T.Q.)._.-X;Xs e e f 0XfXxXxXmXmXHXHXHXPXLXe.w w w >X*Xw z w 0.LXPXIXIXIXIX.     * T PXLXLXXX7 b j / KXLXPXPXPXIXHXHXGXmXmXxXyXfX0Xd w e 2 b.`.(.~.R.U.J.M.",
"B.D.Y.R.Q.).`.#X2X] e k q +XfXxXxXmXCXCXHXHXPXSXZ w w Z lX*Xw z j w.PXPXPXJXPXqX        . cXPXPXhX1 z z Z FXPXPXPXPXIXIXIXGXbXbXxXjXyXP.2 k g 4 S.'.(.(.R.U.V.V.",
"B.D.Y.T.Q.).`.#X2XH.0 k e S.jXfXxXmXmXHXHXLXLXhX7 j 8 ' LX*Xw z w 0.PXPXPXPXPX'.X . > T   <XPXPXZX7 z z e lXPXPXPXPXIXKXHXGXGXbXjXjX9XD k j q y !.`.(.(.E.U.V.B.",
"B.D.Y.R.Q.).#X#X2X$Xp e e 0.fXbXbXmXmXGXHXKXLX&Xw j q G.LX&Xw z j q.LXPXPXJXIX}.T > E *.  V.PXPXKXg z z 0 hXLXLXPXPXLXKXKXmXmXnXjXkXp.q M e q C #X`.(.W.R.U.V.M.",
"B.D.Y.T.Q.).`.#X:X3XZ e k d dXfXbXbXmXCXHXKXLXt.j j g sXLX&Xw z j q.PXPXJXIXIXuX@ <., ,   M.PXPXLXM j z w ,XSXSXSXSXFXZXVXlXkXhXXX0.9 k k e y X.1X`.(.(.E.U.J.M.",
"B.D.Y.R.Q.(.`.#X2X3Xe.q k 0 oXxXbXmXmXHXHXKXDXB w w D SXLX&Xj z w q.PXPXPXJXPXaX: {.{.>.. >.PXPXLXF z b j z.M M S S M D D M M q 9 k c k e q u Y.<X'.(.(.].U.V.M.",
"B.D.Y.R.Q.(.`.<X<X6XP.2 k e h.kXbXmXmXMXHXKX>X1 j w e.LXPXOXw z j w.PXPXPXPXJXpX: 7.>.>.= ..PXPXLXG m b j s.7 j j z z z z z c c c c l e p a a.2X<X<X(.W.E.E.V.V.",
"B.D.U.T.~.).#X#X2X3X>Xp l e ( kXbXvXmXHXKXDXl.7 j 0 L.LXLX&Xw z j 0.PXPXPXPXJXtX, >.<. XX X PXPXLXG z z z s.m z z z z b n n n c c k w p u Q #X2X<X'.(.(.R.U.V.M.",
"B.D.Y.R.Q.~.`.<X-X3X8XQ k l V gXbXmXmXmXAXFX9.w w t sXPXLX*Xw z w 0.PXPXPXIXIX> uX|.UXBX|   E.PXLXG m m w s.7 k z z z b n n n n j M f h { @X7X2X<X'.(.W.E.U.V.V.",
"B.D.Y.R.Q.).`.#X2X3X7Xh.e v q >XnXmXCXAXAXDXS w 9 W LXPXPX&Xw m w 0.PXPXPXPXmXT PXUXMXNX4X  = PXLXZ z b w s.g g q g q k k v n c M H ) F.<XqXqX<X<X`.(.].].U.V.M.",
"B.D.Y.T.Q.).#X<X2X3X7X+X8 l 9 l.bXmXmXAXKX>Xw j 0 p.PXPXPX&Xw z j q.PXPXPXPX* #.IXmXHXiX4XX   ^.DXZ m z k *Xi.] ) 0.) ( M g v v w 0.sXrXwXqX5X5X<X<X).W.E.U.V.M.",
"B.D.Y.R.Q.).`.<X1X3X7X6Xp M e / kXmXmXAXDXj.0 j q +XPXPXPX&Xw z w 0.PXPXPXmXX <XHXHXIXHXGX* X u DXq z z k *XKXSXKXZXZXZX$X( e k v e p.wXwXqX4X<X<X`.(.W.E.U.V.V.",
"B.D.Y.T.Q.).`.<X1X3X7XqX( r k p sXmXmXAXFXB j j a gXPXPXPX&Xw z w 0.PXPXIX5XX IXHXHXHXIXIXC.. . hX1 z z 9 6XPXPXPXPXIXKXKXsX( e v M p =XqXqX4X<X<X<X).W.R.E.V.M.",
"F.D.Y.R.Q.).#X<X1X4X4X9XL.q c q >XnXmXAXhX2 l w F DXPXPXLX&Xw z j 0.PXPXPXM.| PXGXMXHXMXIX].  . z.1 z m q gXPXPXPXIXHXHXHXCX>Xg k v k D 0X7X4X5X<X`.).~.E.U.V.M.",
"B.D.Y.R.Q.(.#X<X1X4X7XwX>Xq M g S.nXAXKX&X0 l w h.PXPXPXLX&Xw z j w.PXJXPXX ].NXGXIXMXIXMX<X  . a 9 z j f VXPXPXPXPXIXIXKXCXmXl.e v l 0 S.qX4X2X<X'.(.W.R.U.V.V.",
"B.D.Y.T.Q.).`.<X1X4X7X8X9XD k e ' bXmXAXk.r l 0 $XPXPXPXPX&Xw z j 0.PXJXpX. |.NXMXMXIXMXBX}.. o # e z w W SXPXPXPXPXIXIXGXCXmXsXg k v l s 6X4X1X1X`.(.W.E.U.J.M.",
"B.D.Y.R.Q.).%X<X1X4X7XqXwXw.e l d kXAXFXF w w Z ZXPXPXPXPX&Xw z w 0.PXBX.X<.E pXMXHXGXNXpXA.  O & 0 w w w.PXPXPXPXPXIXGXHXmXCXnXl.q l k 2 h.4X3X}.'.(.(.].U.V.V.",
"B.D.Y.R.Q.).`.#X1X3X7XqXwXL.9 k 2 +XzXsX1 l 0 ' LXPXPXPXPX&Xw z k [ JX.X4.4.1.>.BXMXMXBX.X,.O %.R - 6 w H.LXPXPXPXPXPXHXHXCXmXmXgXB l k w s :X2X#X`.(.W.R.U.V.M.",
"F.V.Y.R.Q.).#X<X2X3X7XqXwX9Xe k 0 l.nXG.7 l t h.PXPXPXPXPX&Xm z e [ BX3.2.;.4.@ A.MXNXBX X5.&.7.=.$ $ B 9XPXJXPXIXPXIXHXHXmXmXnXbXp.w l l t L.2X<X`.(.(.E.U.V.V.",
"B.D.Y.R.Q.).#X<X2X3X7XqXqXfX( e r 9.VX[ w j q &XPXPXPXPXPX&Xw z w [ pX3.:.:.;.%.&.aXBXpX7.,.6.6.8.&.$ F LXPXPXPXPXPXIXIXHXGXmXnXkX6Xe k k e F -X-X`.(.W.E.U.V.M.",
"B.D.Y.R.~.).`.<X1X5X4XqXwXfXl.e r A zXH l e V ZXKXIXIXPXLX&Xw z w [ aX1.;.:.:.2.|.JXJX[.+ 5.6.6.8.=.$ g.PXPXIXPXPXIXIXHXHXGXmXnXbXjXt.q k k 4 P.-X`.(.W.E.U.V.M.",
"B.D.Y.R.^.).#X<X2X4X7XqXqXfX=X9 l c ,XS x w [ LXHXIXHXKXLX&Xj v v q.aX<.5.6.4.8.%.*.C O + 5.4.4.%.O & 3XIXIXIXIXIXHXHXHXIXGXmXbXxXxXOXt e k e / <X`.(.W.E.U.V.M.",
"B.D.K.R.~.).#X#X<X4X7XwXqXfXsXp l c k.c z t I.KXHXGXHXHXKX+Xw x c 9.zX=.%.&.=.=.- o # % + =.,.< O = ..KXGXGXGXGXHXIXHXGXHXGXGXbXxXfXdXW q k e 3 %X<X(.W.E.U.V.M.",
"B.D.Y.R.~.(.).<X2X4X4XqXqXdXfX( r n n c l d :XAXmXGXGXCXCXXXk x x c r 6 - - - - 6 t w 6 $ N ; O $ K 3XGXGXGXGXGXGXGXGXGXGXGXmXbXxXxXfX!.w k k 8 ) #X(.W.].U.V.V.",
"B.D.Y.R.~.).#X<X<X4X7XqXqXfXfXL.0 x n c r B kXnXmXmXmXGXmXP.r x x x c c r r r r c c x r 6 % o $ ; v.nXmXmXmXmXmXvXmXmXmXmXmXmXmXxXfXfXwXF e e w 4 oX(.].U.U.V.M.",
"B.D.Y.R.~.%X#X<X2X4X7XqXqXrXfXsXg c x k q [ nXbXcXcXxXbXnXP.e c x x x x c c c c c c c l t 6 % N  .bXbXxXvXvXvXvXvXvXvXvXvXvXvXvXvXrXrXrXS.3 e e 3 i.).Q.E.U.V.M.",
"B.D.Y.R.~.(.).<X2X4X7X7XwXdXfXjXD e l k p S.bXxXxXxXyXxXxXP.e k r c l v c l l l c l w w y B N y.wXjXxXxXxXxXxXyXxXyXiXxXyXxXxXyXvXrXrXrX6Xa q q 3 u (.Q.E.U.V.V.",
"B.D.Y.R.W.).`.<X<X4X4XqXqXrXfXfX[ y a y s ;XjXfXfXfXfXyXjXK.y a t t t t d t t p t a a N C _ K.dXyXyXeXyXyXrXiXrXrXyXrXiXrXiXyXrXrXrXyXwXqXi.y y 4 % y.Q.E.U.V.M.",
"B.D.Y.R.Q.).%X<X2X4X4XqXwXwXrXeX/.u h h P wXrXrXrXrXrXeXeX0XC C V V V V V V V h C C _ h.^.8XeXeXrXrXwXrXrXwXrXwXrXrXrXwXrXrXrXwXrXrXrXdXqX$Xh u u u ! Q.].U.V.M.",
"B.D.Y.T.Q.).#X<X<X6X7XqXeXwXwXwXwX$X@X%X<XdXwXqXwXqXwXwXwXqX#X$X@X;X#X$X@X;X@X@X@X2X6XqXwXwXqXwXwXwXwXwXwXwXqXqXwXwXqXwXwXwXqXwXwXwXwXqXwX7X%X!./.!.D.Q.E.U.V.M.",
"B.D.Y.T.~.f.Y.Y.Y.@XQ.7XP ~ 2X7X{ ^ R.8XF.! Q.qX7XqXQ.Y u.7X#XY.0Xd.^ 0X8Xf.^.Q.8X7XqXy.^ Y.8Xu.Y v.qXT.Y J.qX#XY d.0X~.I ~ 3X#XP ..7X8X~ ~ @X#XP P !.Q.E.J.V.V.",
"F.D.Y.R.~.K...b.F.%Xv.3XP @.@.4X..b.m.<X..f.{ 4X4X4XY.o.! )._.#.4X_ u.F.4XL y.K.4X4X7X+.F.^ 7Xo.u.b.4X@.n.O.7X@.v.{ 3XK. . .J._._ { N.6X{ b.D.@X_ X.+.Q.R.U.V.M.",
"B.V.Y.T.~.).{ ^ D.^...2XL @X~ 2XP  .!.).~ #X` ).<X2XK.y.F.u.).{ 2Xu.P b.2X& ~ ^.2X2X3X~ ^ { #X{ ^ N.3X~ ~.J.`.U J.F.m.K.u Q m.).^ R.{ <XL ..@X%Xi P @.Q.E.U.V.V.",
"B.V.Y.T.Q.)...{ ~.R...-XP K.! #XU o.m.<X~ ).~ U.<X<XB.u.u.u.Q.{ #X@. .y.<XN K T.<X<X<X{ o.` <X{  .x.-X{ )...-X#.K.y.x.F.L N K.Q.~ b.{ <XI y.Y.(.K L d.W.R.U.V.M.",
"F.D.Y.T.Q.).D...).~.+._._ v.@._...y.D.<Xx.u.#.U.`.`.R.{ v.d.).#.`...u.{ `.#.Y.n.`.`.`.x.).} #Xv...N.`.M...u.T.T.} v.n.Q.o.J.n.^.Y n.y.`._ f.R.).{ K...(.E.U.V.M.",
"B.D.Y.T.Q.(.Q.x.(.~.C.(.n.#.B.(.M.#.u.(.R.#.n.(.(.(.W.#.#.R.(.M.(.J.@.n.).V.(.C.(.(.(.J.(.M.U.U.+.u.Q.W.@.x.(.(.x.u.Q.(.M.(.n.(.u.#.D.(.b.+.n.(.n.).C.R.R.U.V.V.",
"B.D.Y.T.R.R.Q.R.R.].W.R.R.W.R.W.W.R.R.W.R.R.].].R.R.W.R.R.Q.W.R.R.R.T.Q.R.R.R.R.W.R.W.R.R.W.R.R.R.Q.R.R.R.R.R.R.R.R.W.Q.T.W.R.R.W.R.R.Q.R.Q.W.W.R.R.R.(.E.U.V.M.",
"V.D.U.R.].E.U.E.E.E.R.R.U.U.E.E.U.U.E.U.E.U.E.U.U.U.U.U.U.R.E.U.E.U.E.E.E.E.U.U.U.U.U.U.U.U.U.R.U.U.E.U.U.E.E.E.U.E.E.E.E.U.U.E.U.U.U.E.U.U.U.U.E.E.U.E.E.U.D.M.",
"B.D.D.V.V.V.V.V.Z.V.Z.V.J.V.V.J.U.V.U.V.U.V.V.V.V.U.V.V.V.V.D.D.J.J.V.V.V.U.U.V.V.U.U.V.V.U.V.V.V.U.V.V.V.U.V.V.J.J.V.V.J.J.V.V.U.D.V.U.U.V.V.V.V.V.D.V.V.U.V.M.",
"B.V.V.M.V.V.M.V.B.B.B.V.V.M.V.V.V.M.M.V.V.M.V.V.V.V.V.V.V.V.V.M.V.V.M.V.M.V.V.V.V.M.V.V.V.V.V.V.V.V.V.V.V.V.V.M.M.V.V.V.V.M.V.V.V.M.V.V.V.V.V.V.V.V.M.V.V.M.V.M.",
"M.C.M.C.M.C.M.C.M.M.C.C.M.M.C.C.M.C.M.C.C.C.M.C.C.M.M.C.M.C.M.M.C.C.M.M.M.C.C.C.C.C.C.C.M.C.C.C.M.C.C.M.C.C.C.C.M.C.C.C.M.M.M.M.C.C.C.M.C.C.C.M.C.M.M.C.M.M.M.C."
};
