/* XPM */
static char *hun[] = {
/* width height ncolors chars_per_pixel */
"27 18 25 1",
/* colors */
"  c #FC0204",
". c #FC4E4C",
"X c #F4FEFC",
"o c #0C9E24",
"O c #0C9A24",
"+ c #049A1C",
"@ c #04961C",
"# c #FCFEFC",
"$ c #FCFAFC",
"% c #FCF6FC",
"& c #F4F6F4",
"* c #F4F2F4",
"= c #ECEEEC",
"- c #C4E2C4",
"; c #C4DEC4",
": c #C4DAC4",
"> c #FCF6F4",
", c #EC0204",
"< c #048E0C",
"1 c #F40204",
"2 c #F44E4C",
"3 c #049E24",
"4 c #049A24",
"5 c #049624",
"6 c None",
/* pixels */
",1 1 1 1 1 1 1 1 1 1 1 1 11",
"1                          ",
"1                         1",
",                          ",
"1                          ",
"2..........................",
"X#########################X",
"=$$$$$$$$$$$$$$$$$$$$$$$$#>",
"*$#$#$#$#$#$#$#$#$#$#$#$#$$",
"=##$#$#$#$#$#$#$#$#$#$#$##&",
"%##########################",
":-------------------------;",
"<<<<<<<<<<<<<<<<<<<<<<<<<<<",
"5o3O3+o+3O3+o+3O3+o+3O3+o3O",
"O+O+OO+OO+OO+OO+OO+OO+OO+O+",
"@++++++++++++++++++++++++o+",
"O3O3O3O3O3O3O3O3O3O3O3O3O+4",
"@4@5@@5@@5@@5@@5@@5@@5@@5O@"
};
